<svg height="512" viewBox="0 0 64 64" width="512" xmlns="http://www.w3.org/2000/svg"><g id="Layer_4" data-name="Layer 4"><g fill="#f8b234"><circle cx="42.18" cy="28.82" r="13.22"/><path d="m42.18 13.76a1 1 0 0 1 -1-1v-4.76a1 1 0 0 1 2 0v4.72a1 1 0 0 1 -1 1.04z"/><path d="m63 29.82h-4.77a1 1 0 0 1 0-2h4.77a1 1 0 0 1 0 2z"/></g><path d="m64 46.42a10.52 10.52 0 0 1 -10.49 10.58h-43a10.54 10.54 0 0 1 0-21.08 14.68 14.68 0 0 1 28.79-4.11 10.45 10.45 0 0 1 13.87 4.12h.36a10.52 10.52 0 0 1 10.47 10.49z" fill="#ededed"/><path d="m64 46.42a10.52 10.52 0 0 1 -10.49 10.58h-43a10.54 10.54 0 0 1 -9.73-14.56 10.48 10.48 0 0 0 9.71 6.56h43a10.48 10.48 0 0 0 9.71-6.56 10.53 10.53 0 0 1 .8 3.98z" fill="#e0dfde"/><path d="m30.83 18.46a1 1 0 0 1 -.71-.29l-3.34-3.34a1 1 0 1 1 1.41-1.41l3.34 3.34a1 1 0 0 1 0 1.41 1 1 0 0 1 -.7.29z" fill="#f8b234"/><path d="m53.53 18.46a1 1 0 0 1 -.7-.29 1 1 0 0 1 0-1.41l3.33-3.34a1 1 0 0 1 1.42 0 1 1 0 0 1 0 1.41l-3.34 3.34a1 1 0 0 1 -.71.29z" fill="#f8b234"/></g></svg>