<svg id="Layer_1" height="512" viewBox="0 0 512 512" width="512" xmlns="http://www.w3.org/2000/svg"><g><path d="m296.909 83.703c-3.166 0-6.266.265-9.293.754-2.206-29.869-27.123-53.422-57.556-53.422-18.531 0-35.01 8.74-45.573 22.313-9.787-7.628-22.084-12.186-35.455-12.186-25.762 0-47.574 16.878-55.004 40.177-4.444-1.096-9.087-1.688-13.869-1.688-31.885 0-57.731 25.848-57.731 57.733 0 28.695 20.939 52.488 48.37 56.965 4.475 27.429 28.271 48.372 56.965 48.372 20.305 0 38.148-10.492 48.44-26.34 10.292 15.848 28.135 26.34 48.439 26.34 27.777 0 50.966-19.621 56.48-45.757 5.019 1.426 10.311 2.204 15.786 2.204 31.884 0 57.731-25.85 57.731-57.732.002-31.885-25.846-57.733-57.73-57.733z" fill="#939598"/><path d="m354.639 141.435c0 3.761-.359 7.44-1.049 11-5.141-26.62-28.561-46.729-56.68-46.729-3.17 0-6.271.26-9.291.75-2.209-29.87-27.129-53.42-57.56-53.42-18.529 0-35.01 8.739-45.569 22.31-9.79-7.62-22.09-12.18-35.46-12.18-25.761 0-47.57 16.88-55 40.18-4.45-1.1-9.09-1.689-13.87-1.689-28.13 0-51.55 20.109-56.68 46.729-.69-3.56-1.051-7.24-1.051-11 0-31.88 25.84-57.729 57.73-57.729 4.78 0 9.42.59 13.87 1.689 7.43-23.3 29.239-40.18 55-40.18 13.37 0 25.67 4.56 35.46 12.18 10.56-13.57 27.04-22.31 45.569-22.31 30.431 0 55.351 23.55 57.56 53.42 3.02-.49 6.121-.75 9.291-.75 31.88-.001 57.73 25.849 57.73 57.729z" opacity=".1"/><path d="m431.839 149.792c-3.164 0-6.266.265-9.291.755-2.207-29.87-27.124-53.423-57.558-53.423-18.529 0-35.009 8.74-45.572 22.313-9.787-7.629-22.084-12.187-35.454-12.187-25.762 0-47.575 16.878-55.005 40.177-4.444-1.096-9.087-1.688-13.869-1.688-31.884 0-57.731 25.848-57.731 57.733 0 28.695 20.939 52.488 48.37 56.965 4.475 27.43 28.271 48.371 56.965 48.371 20.304 0 38.148-10.492 48.441-26.338 10.292 15.846 28.134 26.338 48.439 26.338 27.776 0 50.964-19.621 56.479-45.756 5.02 1.426 10.312 2.203 15.786 2.203 31.886 0 57.733-25.848 57.733-57.731 0-31.884-25.847-57.732-57.733-57.732z" fill="#d1d3d4"/><path d="m489.57 207.523c0 3.761-.359 7.44-1.049 11-5.141-26.62-28.561-46.729-56.68-46.729-3.17 0-6.271.26-9.291.75-2.209-29.87-27.129-53.42-57.561-53.42-18.529 0-35.01 8.739-45.568 22.31-9.791-7.62-22.09-12.18-35.461-12.18-25.76 0-47.57 16.88-55 40.18-4.45-1.1-9.09-1.689-13.87-1.689-28.13 0-51.55 20.109-56.68 46.729-.69-3.56-1.051-7.24-1.051-11 0-31.88 25.84-57.729 57.73-57.729 4.78 0 9.42.59 13.87 1.689 7.43-23.3 29.24-40.18 55-40.18 13.371 0 25.67 4.56 35.461 12.18 10.559-13.57 27.039-22.31 45.568-22.31 30.432 0 55.352 23.55 57.561 53.42 3.02-.49 6.121-.75 9.291-.75 31.881 0 57.73 25.85 57.73 57.729z" opacity=".1"/><path d="m298.022 330.359c1.723-2.144.999-4.612-1.608-5.487l-49.749-16.678c-2.607-.875-4.025-3.723-3.151-6.33l31.567-94.157c.874-2.607.18-2.987-1.543-.843l-106.786 132.885c-1.723 2.144-.999 4.612 1.609 5.487l49.747 16.678c2.607.875 4.025 3.724 3.151 6.33l-31.566 94.157c-.874 2.607-.18 2.986 1.542.843z" fill="#fcaf17"/><path d="m298.022 330.358-106.79 132.89c-1.72 2.14-2.41 1.76-1.54-.85l6.75-20.12 84.58-105.25c1.721-2.15 1-4.61-1.609-5.49l-49.75-16.68c-2.61-.87-4.02-3.721-3.15-6.33l24.83-74.04 22.189-27.62c1.73-2.15 2.42-1.771 1.551.84l-31.57 94.16c-.87 2.6.54 5.45 3.15 6.33l49.75 16.67c2.609.88 3.33 3.35 1.609 5.49z" fill="#f8a81a"/><g><path d="m38.564 305.586c-.729 0-1.471-.107-2.204-.332-3.959-1.216-6.184-5.412-4.968-9.371l17-55.364c1.215-3.959 5.412-6.186 9.371-4.968 3.959 1.216 6.184 5.411 4.968 9.371l-17 55.363c-.99 3.227-3.96 5.301-7.167 5.301z" fill="#60c8f3"/></g><g><path d="m334.716 397.92c-.729 0-1.471-.107-2.204-.332-3.96-1.216-6.185-5.412-4.969-9.371l17-55.363c1.217-3.961 5.413-6.181 9.371-4.969 3.96 1.216 6.185 5.412 4.969 9.371l-17 55.363c-.991 3.227-3.96 5.301-7.167 5.301z" fill="#60c8f3"/></g><g><path d="m437.494 363.159c-.729 0-1.471-.107-2.204-.332-3.96-1.216-6.185-5.412-4.969-9.371l17-55.363c1.217-3.96 5.414-6.182 9.371-4.969 3.96 1.216 6.185 5.412 4.969 9.371l-17 55.363c-.991 3.227-3.96 5.301-7.167 5.301z" fill="#60c8f3"/></g><g><path d="m383.494 453.283c-.729 0-1.471-.107-2.204-.332-3.96-1.216-6.185-5.412-4.969-9.371l17-55.363c1.217-3.96 5.415-6.18 9.371-4.969 3.96 1.216 6.185 5.412 4.969 9.371l-17 55.363c-.991 3.227-3.96 5.301-7.167 5.301z" fill="#60c8f3"/></g><g><path d="m256.002 480.965c-.729 0-1.471-.107-2.204-.332-3.959-1.216-6.184-5.412-4.968-9.371l17-55.363c1.217-3.96 5.414-6.182 9.371-4.969 3.96 1.216 6.185 5.412 4.969 9.371l-17 55.363c-.991 3.227-3.96 5.301-7.168 5.301z" fill="#60c8f3"/></g><g><path d="m146.623 453.283c-.729 0-1.471-.107-2.204-.332-3.959-1.216-6.184-5.412-4.968-9.371l17-55.363c1.215-3.96 5.411-6.181 9.371-4.969 3.959 1.216 6.184 5.412 4.968 9.371l-17 55.363c-.991 3.227-3.96 5.301-7.167 5.301z" fill="#60c8f3"/></g><g><path d="m55.564 411.639c-.729 0-1.471-.107-2.204-.332-3.959-1.216-6.184-5.412-4.968-9.371l17-55.363c1.215-3.96 5.41-6.182 9.371-4.969 3.959 1.216 6.184 5.412 4.968 9.371l-17 55.363c-.99 3.226-3.96 5.301-7.167 5.301z" fill="#60c8f3"/></g><g><path d="m121.979 343.992c-.729 0-1.471-.107-2.204-.332-3.959-1.216-6.184-5.412-4.968-9.371l17-55.363c1.215-3.96 5.41-6.182 9.371-4.969 3.959 1.216 6.184 5.412 4.968 9.371l-17 55.363c-.99 3.227-3.959 5.301-7.167 5.301z" fill="#60c8f3"/></g></g></svg>